<svg width="24" height="25" viewBox="0 0 24 25" fill="none" xmlns="http://www.w3.org/2000/svg">
<path d="M20.9471 8.74783C20.937 7.99045 20.7952 7.2406 20.5281 6.53183C20.2964 5.93398 19.9426 5.39103 19.4892 4.93766C19.0359 4.48429 18.4929 4.13048 17.8951 3.89883C17.1954 3.63619 16.4562 3.49417 15.7091 3.47883C14.7471 3.43583 14.4421 3.42383 12.0001 3.42383C9.55807 3.42383 9.24507 3.42383 8.29007 3.47883C7.54323 3.49428 6.80442 3.6363 6.10507 3.89883C5.50713 4.13032 4.96409 4.48407 4.5107 4.93746C4.05732 5.39085 3.70356 5.93389 3.47207 6.53183C3.2089 7.23096 3.06719 7.96994 3.05307 8.71683C3.01007 9.67983 2.99707 9.98483 2.99707 12.4268C2.99707 14.8688 2.99707 15.1808 3.05307 16.1368C3.06807 16.8848 3.20907 17.6228 3.47207 18.3238C3.70395 18.9216 4.05797 19.4644 4.51151 19.9176C4.96505 20.3708 5.50813 20.7244 6.10607 20.9558C6.8035 21.229 7.54244 21.3812 8.29107 21.4058C9.25407 21.4488 9.55907 21.4618 12.0011 21.4618C14.4431 21.4618 14.7561 21.4618 15.7111 21.4058C16.4582 21.3911 17.1974 21.2494 17.8971 20.9868C18.4948 20.7549 19.0376 20.401 19.4909 19.9477C19.9442 19.4943 20.2982 18.9515 20.5301 18.3538C20.7931 17.6538 20.9341 16.9158 20.9491 16.1668C20.9921 15.2048 21.0051 14.8998 21.0051 12.4568C21.0031 10.0148 21.0031 9.70483 20.9471 8.74783ZM11.9941 17.0448C9.44007 17.0448 7.37107 14.9758 7.37107 12.4218C7.37107 9.86783 9.44007 7.79883 11.9941 7.79883C13.2202 7.79883 14.396 8.28589 15.263 9.15287C16.13 10.0199 16.6171 11.1957 16.6171 12.4218C16.6171 13.6479 16.13 14.8238 15.263 15.6908C14.396 16.5578 13.2202 17.0448 11.9941 17.0448ZM16.8011 8.70583C16.6595 8.70596 16.5192 8.67817 16.3884 8.62404C16.2575 8.56991 16.1386 8.49051 16.0385 8.39038C15.9384 8.29026 15.859 8.17136 15.8049 8.04052C15.7507 7.90967 15.7229 7.76943 15.7231 7.62783C15.7231 7.48633 15.7509 7.34622 15.8051 7.21549C15.8592 7.08476 15.9386 6.96598 16.0387 6.86592C16.1387 6.76587 16.2575 6.6865 16.3882 6.63235C16.519 6.5782 16.6591 6.55033 16.8006 6.55033C16.9421 6.55033 17.0822 6.5782 17.2129 6.63235C17.3436 6.6865 17.4624 6.76587 17.5625 6.86592C17.6625 6.96598 17.7419 7.08476 17.7961 7.21549C17.8502 7.34622 17.8781 7.48633 17.8781 7.62783C17.8781 8.22383 17.3961 8.70583 16.8011 8.70583Z" fill="#AE7B3C"/>
<path d="M11.9942 15.424C13.6527 15.424 14.9972 14.0795 14.9972 12.421C14.9972 10.7625 13.6527 9.41797 11.9942 9.41797C10.3357 9.41797 8.99121 10.7625 8.99121 12.421C8.99121 14.0795 10.3357 15.424 11.9942 15.424Z" fill="#AE7B3C"/>
</svg>
