<svg width="100" height="44" viewBox="0 0 100 44" fill="none" xmlns="http://www.w3.org/2000/svg">
<path d="M87.445 1.60449C90.812 1.60449 93.6985 2.80751 96.1082 5.204C98.5186 7.60563 99.7209 10.486 99.7209 13.856C99.7209 17.2312 98.5186 20.1071 96.1082 22.4875C95.7815 22.8101 95.446 23.1106 95.1016 23.3892C89.4302 20.459 83.4394 19.0581 83.3158 13.8604C84.3591 15.9468 84.961 17.0963 87.2066 18.2194C87.3854 17.9511 87.576 17.6285 87.7673 17.3756C88.7312 16.0956 88.9335 16.589 91.096 16.1147C92.9134 15.7166 93.3262 14.9109 93.4557 12.8832C91.8038 11.472 92.2799 12.4463 91.2615 10.148C90.6361 8.7368 90.1093 8.62097 88.4494 8.26688L88.6186 5.47671C84.8911 6.35643 82.2901 9.48969 80.9833 12.9587C79.3528 17.2898 79.8517 20.2134 80.6692 24.0424C80.0069 23.5982 79.3756 23.0806 78.776 22.4882C76.381 20.0969 75.1787 17.2217 75.1787 13.8567C75.1787 10.497 76.381 7.61589 78.776 5.20473C81.1864 2.80824 84.0722 1.60523 87.4443 1.60523L87.445 1.60449Z" fill="#3D4A39"/>
<path d="M90.1461 7.56018L90.3595 7.04847C91.2586 7.42162 92.0812 7.97951 92.8259 8.7214L92.8251 8.72214C93.5778 9.4699 94.1422 10.2924 94.5182 11.1897C94.8949 12.0885 95.0825 13.0599 95.0825 14.1023C95.0825 15.1543 94.8942 16.1301 94.5167 17.0289C94.14 17.9254 93.5764 18.7428 92.8237 19.4796C92.0746 20.2178 91.2513 20.7706 90.3551 21.1401C89.4552 21.511 88.4847 21.6958 87.4451 21.6958C86.3892 21.6958 85.4099 21.5118 84.5071 21.1415C83.605 20.7721 82.7846 20.2178 82.0444 19.4781L82.0437 19.4789C81.299 18.737 80.7391 17.9166 80.3646 17.0179C79.9901 16.1198 79.8024 15.1477 79.8024 14.1023C79.8024 13.065 79.9901 12.0973 80.3638 11.1985C80.7376 10.3012 81.2976 9.47576 82.0422 8.7236C82.778 7.98024 83.5962 7.42162 84.4975 7.04847L84.7109 7.56018C83.878 7.90473 83.1201 8.4223 82.438 9.11141C81.7442 9.81225 81.224 10.5791 80.8774 11.4111C80.5323 12.2403 80.3594 13.1376 80.3594 14.1023C80.3594 15.0759 80.5323 15.9769 80.8782 16.8053C81.224 17.6344 81.7442 18.3954 82.4373 19.0867V19.0874C83.1245 19.775 83.8853 20.2889 84.7175 20.6306C85.5497 20.9715 86.4584 21.1415 87.4443 21.1415C88.4134 21.1415 89.3132 20.9715 90.1432 20.6291C90.9717 20.2875 91.7354 19.7736 92.4322 19.0867L92.433 19.0859C93.132 18.402 93.6544 17.6454 94.0024 16.8177C94.3504 15.9879 94.5241 15.0832 94.5241 14.1031C94.5241 13.1324 94.3512 12.2322 94.0031 11.4023C93.6551 10.5717 93.132 9.80859 92.4315 9.11361H92.4307C91.7369 8.4223 90.9746 7.904 90.1454 7.56018H90.1461ZM87.4451 1.60449C89.1646 1.60449 90.7635 1.91239 92.2424 2.52746C93.7199 3.1418 95.0737 4.06183 96.3047 5.28537H96.3054C97.5356 6.51111 98.4591 7.86221 99.0756 9.33794C99.6922 10.8144 99.9998 12.4125 99.9998 14.1331C99.9998 15.8566 99.6915 17.4548 99.0756 18.9283C98.4598 20.4004 97.5364 21.7449 96.3047 22.9611C95.0788 24.1722 93.7272 25.0805 92.249 25.6867C90.7701 26.293 89.169 26.5965 87.4451 26.5965V26.5958C85.7138 26.5907 84.1083 26.285 82.6293 25.6787C81.1511 25.0724 79.801 24.167 78.581 22.9618L78.5803 22.9611C77.3567 21.7397 76.4377 20.393 75.824 18.9217C75.2097 17.4489 74.9014 15.853 74.9014 14.1346C74.9014 12.4184 75.2097 10.8232 75.824 9.34674C76.4377 7.87248 77.3567 6.51991 78.5803 5.28757L78.581 5.28684C79.812 4.0633 81.1659 3.14326 82.644 2.52893C84.123 1.91386 85.7233 1.60596 87.4458 1.60596L87.4451 1.60449ZM92.029 3.03843C90.62 2.45269 89.0925 2.15871 87.4451 2.15871C85.7954 2.15871 84.2665 2.45195 82.8567 3.03843C81.4462 3.62491 80.1519 4.50463 78.9732 5.67685C77.8026 6.8564 76.9226 8.14959 76.3369 9.55787C75.7512 10.9647 75.4584 12.4895 75.4584 14.1331C75.4584 15.7797 75.7519 17.3045 76.3369 18.7077C76.9226 20.1123 77.8018 21.3996 78.9732 22.5689C80.1416 23.7228 81.4307 24.5886 82.8405 25.1662C84.2525 25.7454 85.7881 26.0372 87.4451 26.0416V26.0401C89.0984 26.0401 90.6295 25.7513 92.0378 25.1743C93.4476 24.5966 94.7389 23.7279 95.9125 22.5681C97.0912 21.404 97.9742 20.1196 98.5621 18.715C99.1492 17.3111 99.4428 15.7841 99.4428 14.1324C99.4428 12.4837 99.1492 10.9559 98.5621 9.54907C97.9749 8.14226 97.0912 6.85127 95.9118 5.67612L95.9125 5.67538C94.7338 4.50316 93.4395 3.62344 92.029 3.03696V3.03843Z" fill="#3D4A39"/>
<path d="M84.6866 7.49991L84.7117 7.56003C84.6484 7.58642 84.5858 7.61354 84.5233 7.6414C82.9311 9.05261 81.7398 10.9491 80.9834 12.9578C80.7406 13.6029 80.5449 14.2166 80.3911 14.8067C80.4551 15.5141 80.6177 16.1805 80.8782 16.8051C81.224 17.6343 81.7442 18.3952 82.4373 19.0865V19.0873C83.1246 19.7749 83.8854 20.2888 84.7175 20.6304C85.5497 20.9713 86.4584 21.1414 87.4444 21.1414C88.2206 21.1414 88.952 21.0322 89.6392 20.813C86.1325 19.1327 83.3983 17.3542 83.3151 13.8595C84.3585 15.9459 84.9603 17.0954 87.206 18.2185C87.3848 17.9502 87.5753 17.6277 87.7666 17.3755C88.7305 16.0955 88.9329 16.5881 91.0953 16.1145C92.9127 15.7165 93.3255 14.9108 93.455 12.883C91.8032 11.4718 92.2792 12.4461 91.2609 10.1479C90.6355 8.73665 90.1094 8.62082 88.4487 8.26673L88.6179 5.47656C87.1221 5.82992 85.808 6.54615 84.6859 7.50064L84.6866 7.49991Z" fill="#DDD5C1"/>
<path d="M90.3443 21.1447C89.4474 21.5127 88.4806 21.696 87.4453 21.696C86.3895 21.696 85.4101 21.5112 84.5073 21.1417C83.6053 20.7723 82.7849 20.218 82.0447 19.4783L82.0439 19.4791C81.2993 18.7372 80.7394 17.9168 80.3648 17.0181C80.2574 16.7607 80.1654 16.4976 80.0889 16.2285C79.6519 18.9256 80.0676 21.218 80.6548 23.9744C81.3479 24.4561 82.0763 24.8541 82.84 25.1672C84.252 25.7463 85.7876 26.0381 87.4446 26.0425V26.0418C89.0979 26.0418 90.6291 25.7529 92.0374 25.176C93.1065 24.7376 94.1079 24.132 95.0416 23.3586C93.4538 22.542 91.8424 21.8426 90.3436 21.1454L90.3443 21.1447Z" fill="#AE7B3C"/>
<path d="M61.7619 1.6497C65.1186 1.6497 68.0102 2.83732 70.4405 5.21842L66.9764 8.66984C65.5078 7.22711 63.778 6.50281 61.7928 6.50281C59.7613 6.50281 58.0315 7.22711 56.604 8.66984C55.1663 10.1023 54.4445 11.831 54.4445 13.855C54.4445 15.874 55.1663 17.6026 56.604 19.0351C58.0212 20.4676 59.751 21.1867 61.7928 21.1867C63.2923 21.1867 64.6535 20.7689 65.8816 19.9324C67.0125 19.1678 67.8572 18.1789 68.42 16.9751H61.522V12.361H73.9362C74.2534 16.47 73.082 19.8459 70.4103 22.4865C67.9999 24.8676 65.1141 26.0553 61.7472 26.0553C58.3493 26.0553 55.4636 24.8676 53.0943 22.4865C50.6993 20.1157 49.4971 17.2405 49.4971 13.855C49.4971 10.4953 50.6993 7.61418 53.0943 5.20302C55.4739 2.80653 58.3596 1.60352 61.7472 1.60352L61.7626 1.6497H61.7619Z" fill="#3D4A39"/>
<path d="M61.9616 1.37358C63.5995 1.39631 65.1306 1.69981 66.5537 2.28555C68.0341 2.89402 69.3938 3.806 70.6351 5.02147L70.8352 5.21721L66.9782 9.06011L66.7817 8.8673C66.0732 8.17159 65.3021 7.64889 64.4699 7.30067C63.6407 6.95392 62.7482 6.78017 61.7924 6.78017C60.8138 6.78017 59.9095 6.95392 59.0795 7.30067C58.2481 7.64816 57.4888 8.16939 56.8015 8.86364L56.8008 8.86584C56.1069 9.55715 55.5867 10.3181 55.2409 11.148C54.8958 11.9771 54.7229 12.8795 54.7229 13.8546C54.7229 14.8281 54.8958 15.7291 55.2417 16.5575C55.5875 17.3866 56.1077 18.1476 56.8008 18.8382L56.8015 18.8404C57.4836 19.5302 58.2407 20.0478 59.0714 20.3923C59.9007 20.7362 60.8079 20.9084 61.7924 20.9084C62.5157 20.9084 63.2036 20.808 63.857 20.6079C64.5111 20.407 65.1336 20.1057 65.7244 19.7032H65.7252C66.2674 19.3367 66.742 18.9151 67.1489 18.4416C67.4616 18.0772 67.7346 17.6806 67.9678 17.2525H61.2427V12.0834H74.1933L74.2132 12.34C74.3743 14.4308 74.1558 16.339 73.5554 18.064C72.9535 19.7927 71.9713 21.3322 70.6056 22.6825C69.3747 23.8987 68.0201 24.8107 66.5426 25.4192C65.0637 26.0284 63.4656 26.3326 61.7468 26.3326C60.0118 26.3326 58.4048 26.0284 56.9274 25.4184C55.4506 24.8092 54.1071 23.8973 52.8974 22.6818C51.6738 21.47 50.7548 20.1291 50.1405 18.6571C49.5261 17.1843 49.2178 15.5832 49.2178 13.8546C49.2178 12.1384 49.5261 10.5432 50.1405 9.0667C50.7541 7.59244 51.6731 6.23988 52.8967 5.00754C54.113 3.78254 55.4602 2.86177 56.9377 2.24743C58.4144 1.6331 60.0177 1.3252 61.7468 1.3252H61.9462L61.9616 1.37285V1.37358ZM66.3432 2.79652C64.932 2.21664 63.4052 1.92634 61.7622 1.92634H61.5628L61.5481 1.88162C59.9676 1.90434 58.5019 2.19685 57.151 2.75913C55.742 3.34561 54.4551 4.22533 53.2904 5.39755C52.119 6.57711 51.2397 7.87029 50.6533 9.2793C50.0676 10.6861 49.7748 12.211 49.7748 13.8546C49.7748 15.5114 50.0683 17.0413 50.6533 18.4445C51.239 19.8491 52.1182 21.1306 53.2889 22.2903L53.2896 22.291C54.4478 23.4552 55.731 24.3269 57.1371 24.9067C58.5446 25.4874 60.0817 25.7777 61.746 25.7777C63.3942 25.7777 64.9224 25.4881 66.3314 24.9075C67.7405 24.3269 69.0347 23.4545 70.2142 22.2896C71.5195 20.9986 72.4583 19.5302 73.0315 17.8837C73.5812 16.3038 73.796 14.5547 73.6761 12.6376H61.7997V16.6968H68.8559L68.6712 17.0912C68.3791 17.7158 68.0127 18.2861 67.5705 18.8008C67.1335 19.3103 66.6221 19.7633 66.0371 20.1599V20.1607C65.4007 20.5939 64.7282 20.9194 64.0196 21.1372C63.3103 21.3549 62.5679 21.4634 61.7924 21.4634C60.7358 21.4634 59.7579 21.2764 58.8588 20.904C57.9597 20.5316 57.1429 19.973 56.4072 19.2304L56.4064 19.2311C55.6618 18.4892 55.1019 17.6689 54.7273 16.7701C54.3528 15.872 54.1652 14.9 54.1652 13.8546C54.1652 12.807 54.3528 11.8341 54.7273 10.9354C55.1019 10.0359 55.6618 9.21552 56.4064 8.47363L56.4072 8.47436C57.1474 7.7266 57.9663 7.16432 58.8639 6.7897C59.7631 6.41362 60.7395 6.22595 61.7924 6.22595C62.8217 6.22595 63.7864 6.41436 64.6848 6.7897C65.503 7.13206 66.266 7.62983 66.9708 8.28302L70.0435 5.22161C68.9089 4.15275 67.6757 3.34488 66.3425 2.79652H66.3432Z" fill="#3D4A39"/>
<path d="M42.5268 15.1094V1.74065H47.3977V26.372L32.824 12.5392V25.9079H27.9678V1.29199L42.5268 15.1094Z" fill="#3D4A39"/>
<path d="M41.9697 13.8167V1.18615H47.9546V27.6649L33.3808 13.8328V26.4633H27.4106V0L41.9689 13.8167H41.9697ZM43.0836 2.29606V16.4023L28.5254 2.58563V25.3534H32.2676V11.2472L46.8413 25.0793V2.29606H43.0836Z" fill="#3D4A39"/>
<path d="M20.1133 1.79785H24.9695V25.8779H20.1133V1.79785Z" fill="#3D4A39"/>
<path d="M20.1133 1.51953H25.2477V26.1545H19.8345V1.51953H20.1126H20.1133ZM24.6914 2.07449H20.3922V25.5996H24.6914V2.07449Z" fill="#3D4A39"/>
<path d="M8.63048 13.254C9.51048 13.254 10.2625 12.9226 10.8923 12.2548C11.5118 11.5869 11.8238 10.7915 11.8238 9.86339C11.8238 8.98661 11.5015 8.21685 10.8614 7.549C10.2014 6.91194 9.20366 6.59598 7.86305 6.59598H5.13549V13.2393H7.00807V13.2547H8.63048V13.254ZM0.279297 1.79785H8.16473C10.7231 1.79785 12.8318 2.61379 14.4896 4.25006C15.3033 5.05574 15.8765 5.81523 16.2142 6.5344C16.6233 7.41118 16.8286 8.47197 16.8286 9.71604V10.3428C16.8286 11.9644 16.3217 13.4937 15.3041 14.9313C14.572 15.9459 13.6051 16.6849 12.408 17.154L18.0316 25.8779H12.096L5.15168 15.2275V25.8779H0.280033V1.79785H0.279297Z" fill="#3D4A39"/>
<path d="M8.63053 12.9764C9.03227 12.9764 9.40311 12.9016 9.74304 12.7513C10.0844 12.6003 10.3994 12.3723 10.6878 12.0673C10.974 11.758 11.1889 11.4215 11.3309 11.0571C11.4729 10.692 11.545 10.2947 11.545 9.86365C11.545 9.46118 11.4714 9.0851 11.3257 8.73394C11.1786 8.38132 10.9578 8.0507 10.6635 7.7428C10.3655 7.45615 9.9888 7.24062 9.53334 7.0962C9.06318 6.94665 8.50692 6.87261 7.86237 6.87261H5.41367V12.961H7.28625V12.9764H8.6298H8.63053ZM9.96746 13.2579C9.55468 13.4404 9.10953 13.5306 8.63053 13.5306H6.73V13.5152H4.85742V6.31692H7.86311C8.5599 6.31692 9.17207 6.40049 9.7011 6.56911C10.2426 6.74138 10.6937 7.0009 11.055 7.34986L11.0623 7.35719C11.4059 7.71567 11.6649 8.10348 11.8386 8.52061C12.0137 8.94068 12.1012 9.38787 12.1012 9.86291C12.1012 10.36 12.0166 10.824 11.8481 11.2558C11.6796 11.6876 11.4287 12.0827 11.0962 12.442L11.0939 12.4441C10.7533 12.8056 10.378 13.0768 9.96672 13.2579H9.96746ZM0.279352 1.51953H8.16478C9.47742 1.51953 10.6775 1.72993 11.765 2.15146C12.8554 2.57373 13.8289 3.20785 14.6853 4.05312C15.1003 4.46438 15.4557 4.86539 15.7522 5.25833C16.0509 5.6542 16.2886 6.03981 16.4652 6.41662L16.4659 6.41736C16.68 6.87627 16.8404 7.38211 16.9471 7.93413C17.0531 8.48322 17.1061 9.07703 17.1061 9.71483V10.3416C17.1061 11.1818 16.9744 11.9984 16.7117 12.7916C16.449 13.5819 16.0554 14.348 15.5307 15.0899L15.5285 15.0921C15.1474 15.6207 14.7052 16.0774 14.2019 16.4637C13.7825 16.7856 13.3212 17.0583 12.8194 17.2811L18.5394 26.1545H11.9445L5.42912 16.161V26.1545H0.000488281V1.51953H0.278616H0.279352ZM8.16478 2.07449H0.557479V25.5996H4.87213V14.2916L12.2447 25.5996H17.5218L11.9901 17.0194L12.3058 16.8955C12.8812 16.6697 13.4006 16.3802 13.8627 16.0261C14.3226 15.6727 14.728 15.2548 15.0768 14.7717H15.076C15.569 14.076 15.9376 13.3583 16.1834 12.6186C16.4277 11.8826 16.5498 11.1231 16.5498 10.3424V9.71556C16.5498 9.10929 16.5005 8.55067 16.4019 8.03897C16.3041 7.53093 16.1569 7.06761 15.9619 6.64975H15.9627C15.8022 6.30812 15.5845 5.95477 15.3093 5.59042C15.0311 5.22167 14.6927 4.84046 14.2946 4.44606C13.4934 3.65504 12.5832 3.06197 11.5656 2.66756C10.5451 2.27242 9.41194 2.07449 8.16552 2.07449H8.16478Z" fill="#3D4A39"/>
<path d="M5.1973 41.9747C5.70867 41.9747 6.16486 41.8889 6.5666 41.7174C6.96834 41.5459 7.31048 41.3054 7.5886 40.9968C7.86747 40.6881 8.07937 40.3187 8.2258 39.8898C8.37222 39.4609 8.44432 38.9888 8.44432 38.4734V30.998H10.1065V38.4734C10.1065 39.1831 9.99463 39.8407 9.76801 40.4477C9.54138 41.0539 9.2169 41.5774 8.79456 42.0209C8.37222 42.4644 7.85569 42.8134 7.2472 43.0648C6.6387 43.3163 5.95516 43.4424 5.1973 43.4424C4.43944 43.4424 3.75589 43.3163 3.14739 43.0648C2.5389 42.8134 2.02164 42.4644 1.59709 42.0209C1.17181 41.5774 0.84806 41.0539 0.620702 40.4477C0.39408 39.8414 0.279297 39.1831 0.279297 38.4734V30.998H1.94144V38.4646C1.94144 38.9793 2.01575 39.4514 2.16218 39.881C2.3086 40.3099 2.52124 40.6793 2.79937 40.988C3.07823 41.2966 3.41964 41.5371 3.82432 41.7115C4.229 41.886 4.68593 41.9747 5.19656 41.9747H5.1973Z" fill="#AE7B3C"/>
<path d="M19.178 36.3875H19.8071C20.0256 36.3875 20.2008 36.3589 20.3325 36.3047C20.4642 36.2504 20.5848 36.1588 20.6945 36.0268L24.8031 31.3922C24.9179 31.2434 25.0386 31.1408 25.1651 31.0836C25.2917 31.0264 25.4462 30.9978 25.6301 30.9978H27.0428L22.3397 36.293C22.2249 36.4301 22.116 36.5415 22.0093 36.6302C21.9034 36.7189 21.7886 36.7929 21.6679 36.8501C21.8232 36.9014 21.9637 36.9762 22.0903 37.0759C22.2168 37.1763 22.3397 37.3076 22.4604 37.4681L27.3703 43.2955H25.923C25.8141 43.2955 25.7221 43.2867 25.6441 43.2728C25.5668 43.2581 25.4977 43.2354 25.4403 43.2039C25.3829 43.1724 25.3343 43.135 25.2909 43.0924C25.2475 43.0492 25.2048 43.0008 25.1644 42.9436L20.9093 38.0605C20.7945 37.9175 20.6709 37.8141 20.5392 37.754C20.4075 37.6939 20.2059 37.6653 19.9366 37.6653H19.1787V43.2955H17.5166V30.9971H19.1787V36.3868L19.178 36.3875Z" fill="#AE7B3C"/>
<path d="M36.759 36.9537C37.2417 36.9537 37.6692 36.8936 38.0393 36.7763C38.4094 36.659 38.7199 36.4933 38.9693 36.2785C39.2188 36.0637 39.4057 35.8094 39.5322 35.5117C39.6588 35.2141 39.7221 34.8849 39.7221 34.525C39.7221 33.7926 39.4807 33.2406 38.9988 32.8689C38.5161 32.4972 37.7928 32.311 36.8282 32.311H35.002V36.9545H36.759V36.9537ZM42.4614 43.2965H40.9795C40.6749 43.2965 40.4512 43.1792 40.3077 42.9446L37.1034 38.5504C37.0055 38.4133 36.9025 38.3129 36.7907 38.2528C36.6788 38.1927 36.5037 38.1641 36.2683 38.1641H35.002V43.2965H33.3398V30.998H36.8282C37.6089 30.998 38.2843 31.075 38.8524 31.2326C39.4211 31.3903 39.892 31.619 40.2621 31.9166C40.6322 32.2143 40.9052 32.572 41.0833 32.9921C41.2613 33.4129 41.3504 33.885 41.3504 34.4055C41.3504 34.8402 41.2812 35.2463 41.1436 35.6239C41.006 36.0014 40.8073 36.3394 40.5461 36.6392C40.2849 36.9398 39.9663 37.1971 39.5904 37.409C39.2144 37.6208 38.7861 37.7807 38.3093 37.8899C38.522 38.0101 38.7059 38.1846 38.8605 38.4133L42.4614 43.2965Z" fill="#AE7B3C"/>
<path d="M54.5199 38.73L52.5818 33.7266C52.5244 33.5778 52.4641 33.4033 52.4008 33.2061C52.3375 33.0089 52.2772 32.8 52.2198 32.5764C52.0991 33.0397 51.9755 33.4261 51.8497 33.7347L49.9116 38.7293H54.5199V38.73ZM58.0001 43.2958H56.7081C56.5587 43.2958 56.4381 43.2584 56.3461 43.1843C56.2541 43.1103 56.185 43.0157 56.1393 42.9014L54.9849 39.9316H49.4459L48.2914 42.9014C48.2568 43.004 48.1906 43.0956 48.0935 43.1763C47.9956 43.2562 47.875 43.2965 47.7315 43.2965H46.4395L51.3751 30.998H53.0637L57.9994 43.2965L58.0001 43.2958Z" fill="#AE7B3C"/>
<path d="M65.1324 43.2962H63.4614V30.9971H65.1324V43.2962Z" fill="#AE7B3C"/>
<path d="M82.6961 30.9971V43.2955H81.8603C81.7278 43.2955 81.619 43.2728 81.5299 43.2266C81.4409 43.1812 81.3519 43.1034 81.2658 42.9949L74.1249 33.7257C74.1367 33.8686 74.1448 34.0086 74.1507 34.1465C74.1566 34.2835 74.1595 34.4126 74.1595 34.5328V43.2955H72.6953V30.9971H73.5569C73.6312 30.9971 73.6945 31 73.7468 31.0088C73.7983 31.0176 73.8446 31.0315 73.8843 31.0521C73.9248 31.0718 73.9645 31.1004 74.005 31.1378C74.0455 31.1752 74.0882 31.2236 74.1345 31.2808L81.2753 40.5413C81.2636 40.3925 81.2555 40.2466 81.2466 40.1065C81.2378 39.9665 81.2319 39.8346 81.2319 39.7092V30.9978H82.6961V30.9971Z" fill="#AE7B3C"/>
<path d="M96.2376 38.73L94.2996 33.7266C94.2422 33.5778 94.1819 33.4033 94.1186 33.2061C94.0553 33.0089 93.995 32.8 93.9376 32.5764C93.8169 33.0397 93.6933 33.4261 93.5675 33.7347L91.6294 38.7293H96.2376V38.73ZM99.7179 43.2958H98.4259C98.2765 43.2958 98.1558 43.2584 98.0639 43.1843C97.9719 43.1103 97.9027 43.0157 97.8571 42.9014L96.7027 39.9316H91.1637L90.0092 42.9014C89.9746 43.004 89.9084 43.0956 89.8113 43.1763C89.7134 43.2562 89.5927 43.2965 89.4493 43.2965H88.1572L93.0929 30.998H94.7815L99.7172 43.2965L99.7179 43.2958Z" fill="#AE7B3C"/>
</svg>
